<svg width="47" height="47" viewBox="0 0 47 47" fill="none" xmlns="http://www.w3.org/2000/svg">
<g clip-path="url(#clip0_740_65)">
<path d="M10.2812 0C10.6708 0 11.0444 0.154743 11.3198 0.430187C11.5953 0.705631 11.75 1.07921 11.75 1.46875V2.9375H35.25V1.46875C35.25 1.07921 35.4047 0.705631 35.6802 0.430187C35.9556 0.154743 36.3292 0 36.7188 0C37.1083 0 37.4819 0.154743 37.7573 0.430187C38.0328 0.705631 38.1875 1.07921 38.1875 1.46875V2.9375H41.125C42.6831 2.9375 44.1775 3.55647 45.2793 4.65825C46.381 5.76002 47 7.25435 47 8.8125V41.125C47 42.6831 46.381 44.1775 45.2793 45.2793C44.1775 46.381 42.6831 47 41.125 47H5.875C4.31685 47 2.82252 46.381 1.72075 45.2793C0.618972 44.1775 0 42.6831 0 41.125V8.8125C0 7.25435 0.618972 5.76002 1.72075 4.65825C2.82252 3.55647 4.31685 2.9375 5.875 2.9375H8.8125V1.46875C8.8125 1.07921 8.96724 0.705631 9.24269 0.430187C9.51813 0.154743 9.89171 0 10.2812 0ZM5.875 5.875C5.09593 5.875 4.34876 6.18449 3.79787 6.73537C3.24699 7.28626 2.9375 8.03343 2.9375 8.8125V11.75H44.0625V8.8125C44.0625 8.03343 43.753 7.28626 43.2021 6.73537C42.6512 6.18449 41.9041 5.875 41.125 5.875H5.875ZM44.0625 14.6875H2.9375V41.125C2.9375 41.9041 3.24699 42.6512 3.79787 43.2021C4.34876 43.753 5.09593 44.0625 5.875 44.0625H41.125C41.9041 44.0625 42.6512 43.753 43.2021 43.2021C43.753 42.6512 44.0625 41.9041 44.0625 41.125V14.6875Z" fill="black"/>
</g>
<defs>
<clipPath id="clip0_740_65">
<rect width="47" height="47" fill="white"/>
</clipPath>
</defs>
</svg>
