<svg width="51" height="47" viewBox="0 0 51 47" fill="none" xmlns="http://www.w3.org/2000/svg">
<path d="M33.8688 31.3337C33.8688 29.1697 27.3723 27.417 19.3585 27.417M33.8688 31.3337C33.8688 33.4976 27.3723 35.2503 19.3585 35.2503C11.3447 35.2503 4.84828 33.4976 4.84828 31.3337M33.8688 31.3337V41.002C33.8688 43.2325 27.3723 45.042 19.3585 45.042C11.3447 45.042 4.84828 43.2345 4.84828 41.002V31.3337M33.8688 31.3337C41.7955 31.3337 48.379 29.4008 48.379 27.417V7.83366M19.3585 27.417C11.3447 27.417 4.84828 29.1697 4.84828 31.3337M19.3585 27.417C10.2005 27.417 2.77539 25.4841 2.77539 23.5003V13.7087M19.3585 9.79199C10.2005 9.79199 2.77539 11.5447 2.77539 13.7087M2.77539 13.7087C2.77539 15.8726 10.2005 17.6253 19.3585 17.6253C19.3585 19.6091 26.1017 21.542 34.0284 21.542C41.9531 21.542 48.379 19.6091 48.379 17.6253M48.379 7.83366C48.379 5.6697 41.9531 3.91699 34.0284 3.91699C26.1017 3.91699 19.6778 5.6697 19.6778 7.83366M48.379 7.83366C48.379 9.99762 41.9531 11.7503 34.0284 11.7503C26.1037 11.7503 19.6778 9.99762 19.6778 7.83366M19.6778 7.83366V27.7421" stroke="black" stroke-width="2"/>
</svg>
