<svg width="47" height="47" viewBox="0 0 47 47" fill="none" xmlns="http://www.w3.org/2000/svg">
<circle cx="23.5" cy="23.5" r="23.5" fill="#FFC32C"/>
<path d="M25.4229 8.87836C25.9855 8.31595 26.7485 8 27.5439 8C28.3394 8 29.1024 8.31595 29.6649 8.87836L43.1649 22.3784C43.7274 22.9409 44.0433 23.7039 44.0433 24.4994C44.0433 25.2949 43.7274 26.0578 43.1649 26.6204L29.6649 40.1204C29.0991 40.6668 28.3413 40.9692 27.5547 40.9624C26.7682 40.9555 26.0157 40.64 25.4595 40.0838C24.9033 39.5276 24.5878 38.7752 24.5809 37.9886C24.5741 37.202 24.8765 36.4442 25.4229 35.8784L33.5439 27.4994H5.04395C4.2483 27.4994 3.48523 27.1833 2.92263 26.6207C2.36002 26.0581 2.04395 25.295 2.04395 24.4994C2.04395 23.7037 2.36002 22.9406 2.92263 22.378C3.48523 21.8154 4.2483 21.4994 5.04395 21.4994H33.5439L25.4229 13.1204C24.8605 12.5578 24.5446 11.7949 24.5446 10.9994C24.5446 10.2039 24.8605 9.44094 25.4229 8.87836Z" fill="white"/>
</svg>
