<svg width="51" height="47" viewBox="0 0 51 47" fill="none" xmlns="http://www.w3.org/2000/svg">
<path d="M25.5327 22.2959C23.8233 22.2959 22.3591 21.7201 21.1403 20.5686C19.9214 19.4171 19.3127 18.0346 19.314 16.4209C19.314 14.8046 19.9228 13.4207 21.1403 12.2692C22.3577 11.1203 23.8219 10.5459 25.5327 10.5459C27.2435 10.5459 28.7077 11.1203 29.9252 12.2692C31.1427 13.4207 31.7514 14.8046 31.7514 16.4209C31.7514 18.0359 31.1427 19.4185 29.9252 20.5686C28.7077 21.7188 27.2435 22.2946 25.5327 22.2959ZM11.0225 36.4546V33.2332C11.0225 32.425 11.2712 31.6691 11.7687 30.9654C12.2676 30.2604 12.9378 29.7134 13.7794 29.3244C15.7362 28.4379 17.6937 27.7734 19.6519 27.3308C21.6115 26.8869 23.5718 26.6649 25.5327 26.6649C27.4951 26.6649 29.4553 26.8869 31.4135 27.3308C33.3717 27.7747 35.3285 28.4392 37.284 29.3244C38.1269 29.7134 38.7972 30.2604 39.2947 30.9654C39.7935 31.6691 40.043 32.425 40.043 33.2332V36.4566L11.0225 36.4546ZM13.0954 34.4963H37.9701V33.2312C37.9701 32.7978 37.8222 32.3898 37.5265 32.0073C37.2294 31.626 36.8189 31.3036 36.2952 31.0399C34.5899 30.2591 32.8307 29.6612 31.0176 29.246C29.2073 28.8295 27.379 28.6213 25.5327 28.6213C23.6878 28.6213 21.8595 28.8295 20.0478 29.246C18.2347 29.6612 16.4756 30.2591 14.7703 31.0399C14.2451 31.3036 13.8347 31.626 13.539 32.0073C13.2432 32.3898 13.0954 32.7984 13.0954 33.2332V34.4963ZM25.5327 20.3376C26.6728 20.3376 27.6491 19.9537 28.4617 19.1861C29.2743 18.4184 29.6799 17.4967 29.6785 16.4209C29.6785 15.3438 29.2729 14.4214 28.4617 13.6538C27.6505 12.8861 26.6742 12.5029 25.5327 12.5042C24.3926 12.5042 23.417 12.8874 22.6058 13.6538C21.7946 14.4201 21.3883 15.3425 21.3869 16.4209C21.3869 17.498 21.7932 18.4197 22.6058 19.1861C23.4184 19.9524 24.394 20.3363 25.5327 20.3376Z" fill="black"/>
</svg>
